# xmcd
#
# Track frame offsets:
#	150
#	13524
#	30440
#	41903
#	58467
#	74726
#	87568
#	102815
#	117048
#	132602
#	146519
#	158016
#	174248
#	188456
#	200733
#	215010
#
# Disc length: 3078 seconds
#
# Revision: 1
# Processed by: cddbd v1.5.2PL0 Copyright (c) Steve Scherf et al.
# Submitted via: audiograbber 1.83.01
#
DISCID=eb0c0410
DTITLE=ICMAG - ICMAG 2000-09
DYEAR=2000
DGENRE=Country
TTITLE0=A Special Kind Of Lady - Colin Clark
TTITLE1=Bear Creek Lounge - Hermann Lammers Meyer
TTITLE2=Foolish Pride - Les Visible
TTITLE3=He´s No Good - Keri Mcinerney
TTITLE4=Into A Fire - Dan Nash
TTITLE5=It´s Over Now - Ron Jordan
TTITLE6=Jesse James - Dan Herrell
TTITLE7=Love Walked Thru My Door - Marion Randell
TTITLE8=Midnight Drive In Show - Orville Davis
TTITLE9=Missing You - Anni Filt
TTITLE10=Out Of The Blue - W. J. Houston
TTITLE11=Please Tell Me What To Do - Suzie Merwine and Butch Paulson
TTITLE12=Shelter In The Rain - Judy Weldon and Mitch Chanler
TTITLE13=Too Many Horses Left To Ride - Troy Cook Jr
TTITLE14=Tore Up - Larry Lavey
TTITLE15=Words - Stephannie Vaughan
EXTD=
EXTT0=
EXTT1=
EXTT2=
EXTT3=
EXTT4=
EXTT5=
EXTT6=
EXTT7=
EXTT8=
EXTT9=
EXTT10=
EXTT11=
EXTT12=
EXTT13=
EXTT14=
EXTT15=
PLAYORDER=
